<svg xmlns="http://www.w3.org/2000/svg" viewBox="0 0 1440 120" preserveAspectRatio="none">
  <path 
    d="M0,0 
       L0,40 
       Q60,50 120,40 
       T240,40 
       Q270,70 300,40 
       T420,40 
       Q450,65 480,40 
       T600,40 
       Q630,75 660,40 
       T780,40 
       Q810,55 840,40 
       T960,40 
       Q990,70 1020,40 
       T1140,40 
       Q1170,60 1200,40 
       T1320,40
       Q1380,65 1440,40
       L1440,0 
       Z" 
    fill="#3d2817"
    opacity="0.5"/>
  <path 
    d="M0,0 
       L0,50 
       Q70,65 140,50 
       T280,50 
       Q310,85 340,50 
       T460,50 
       Q490,75 520,50 
       T640,50 
       Q670,90 700,50 
       T820,50 
       Q850,70 880,50 
       T1000,50 
       Q1030,85 1060,50 
       T1180,50 
       Q1210,75 1240,50 
       T1360,50
       Q1400,80 1440,50
       L1440,0 
       Z" 
    fill="#3d2817"
    opacity="0.7"/>
  <path 
    d="M0,0 
       L0,60 
       Q80,80 160,60 
       T320,60 
       Q350,100 380,60 
       T500,60 
       Q530,90 560,60 
       T680,60 
       Q710,105 740,60 
       T860,60 
       Q890,85 920,60 
       T1040,60 
       Q1070,95 1100,60 
       T1220,60 
       Q1250,90 1280,60 
       T1400,60
       Q1420,95 1440,60
       L1440,0 
       Z" 
    fill="#3d2817"/>
</svg>
