<?xml version="1.0" standalone="no"?>
<svg xmlns:xlink="http://www.w3.org/1999/xlink" id="wave" style="transform:rotate(180deg); transition: 0.3s" viewBox="0 0 1440 150" version="1.1" xmlns="http://www.w3.org/2000/svg"><defs><linearGradient id="sw-gradient-0" x1="0" x2="0" y1="1" y2="0"><stop stop-color="rgba(224, 164, 88, 1)" offset="0%"/><stop stop-color="rgba(224, 164, 88, 1)" offset="100%"/></linearGradient></defs><path style="transform:translate(0, 0px); opacity:1" fill="url(#sw-gradient-0)" d="M0,75L15,70C30,65,60,55,90,65C120,75,150,105,180,117.5C210,130,240,125,270,115C300,105,330,90,360,90C390,90,420,105,450,110C480,115,510,110,540,90C570,70,600,35,630,37.5C660,40,690,80,720,87.5C750,95,780,70,810,70C840,70,870,95,900,105C930,115,960,110,990,102.5C1020,95,1050,85,1080,87.5C1110,90,1140,105,1170,115C1200,125,1230,130,1260,120C1290,110,1320,85,1350,82.5C1380,80,1410,100,1440,105C1470,110,1500,100,1530,90C1560,80,1590,70,1620,70C1650,70,1680,80,1710,82.5C1740,85,1770,80,1800,85C1830,90,1860,105,1890,115C1920,125,1950,130,1980,115C2010,100,2040,65,2070,47.5C2100,30,2130,30,2145,30L2160,30L2160,150L2145,150C2130,150,2100,150,2070,150C2040,150,2010,150,1980,150C1950,150,1920,150,1890,150C1860,150,1830,150,1800,150C1770,150,1740,150,1710,150C1680,150,1650,150,1620,150C1590,150,1560,150,1530,150C1500,150,1470,150,1440,150C1410,150,1380,150,1350,150C1320,150,1290,150,1260,150C1230,150,1200,150,1170,150C1140,150,1110,150,1080,150C1050,150,1020,150,990,150C960,150,930,150,900,150C870,150,840,150,810,150C780,150,750,150,720,150C690,150,660,150,630,150C600,150,570,150,540,150C510,150,480,150,450,150C420,150,390,150,360,150C330,150,300,150,270,150C240,150,210,150,180,150C150,150,120,150,90,150C60,150,30,150,15,150L0,150Z"/></svg>