<?xml version="1.0" standalone="no"?>
<svg xmlns:xlink="http://www.w3.org/1999/xlink" id="wave" style="transform:rotate(180deg); transition: 0.3s" viewBox="0 0 1440 100" version="1.1" xmlns="http://www.w3.org/2000/svg"><defs><linearGradient id="sw-gradient-0" x1="0" x2="0" y1="1" y2="0"><stop stop-color="rgba(184,120,134, 1)" offset="0%"/><stop stop-color="rgba(184,120,134, 1)" offset="100%"/></linearGradient></defs><path style="transform:translate(0, 0px); opacity:1" fill="url(#sw-gradient-0)" d="M0,80L14.1,78.3C28.2,77,56,73,85,75C112.9,77,141,83,169,78.3C197.6,73,226,57,254,51.7C282.4,47,311,53,339,51.7C367.1,50,395,40,424,43.3C451.8,47,480,63,508,63.3C536.5,63,565,47,593,36.7C621.2,27,649,23,678,30C705.9,37,734,53,762,51.7C790.6,50,819,30,847,20C875.3,10,904,10,932,16.7C960,23,988,37,1016,43.3C1044.7,50,1073,50,1101,48.3C1129.4,47,1158,43,1186,48.3C1214.1,53,1242,67,1271,65C1298.8,63,1327,47,1355,45C1383.5,43,1412,57,1440,56.7C1468.2,57,1496,43,1525,41.7C1552.9,40,1581,50,1609,55C1637.6,60,1666,60,1694,55C1722.4,50,1751,40,1779,43.3C1807.1,47,1835,63,1864,68.3C1891.8,73,1920,67,1948,63.3C1976.5,60,2005,60,2019,60L2032.9,60L2032.9,100L2018.8,100C2004.7,100,1976,100,1948,100C1920,100,1892,100,1864,100C1835.3,100,1807,100,1779,100C1750.6,100,1722,100,1694,100C1665.9,100,1638,100,1609,100C1581.2,100,1553,100,1525,100C1496.5,100,1468,100,1440,100C1411.8,100,1384,100,1355,100C1327.1,100,1299,100,1271,100C1242.4,100,1214,100,1186,100C1157.6,100,1129,100,1101,100C1072.9,100,1045,100,1016,100C988.2,100,960,100,932,100C903.5,100,875,100,847,100C818.8,100,791,100,762,100C734.1,100,706,100,678,100C649.4,100,621,100,593,100C564.7,100,536,100,508,100C480,100,452,100,424,100C395.3,100,367,100,339,100C310.6,100,282,100,254,100C225.9,100,198,100,169,100C141.2,100,113,100,85,100C56.5,100,28,100,14,100L0,100Z"/></svg>