<?xml version="1.0" encoding="UTF-8" standalone="no"?>
<!DOCTYPE svg PUBLIC "-//W3C//DTD SVG 1.1//EN" "http://www.w3.org/Graphics/SVG/1.1/DTD/svg11.dtd">
<svg width="100%" height="100%" viewBox="0 0 2160 121" version="1.1" xmlns="http://www.w3.org/2000/svg" xmlns:xlink="http://www.w3.org/1999/xlink" xml:space="preserve" xmlns:serif="http://www.serif.com/" style="fill-rule:evenodd;clip-rule:evenodd;stroke-linejoin:round;stroke-miterlimit:2;">
    <g transform="matrix(0.999926,0.012177,0.0161601,-1.327,-2.09561,107.485)">
        <path d="M0.099,50.675L15.099,50.815C30.099,50.955 60.099,51.235 89.699,43.215C119.199,34.785 148.399,19.065 178.499,22.345C208.669,25.625 239.969,49.915 269.969,49.895C299.969,50.475 328.669,26.745 357.969,14.015C387.268,1.285 417.068,-2.435 447.348,3.145C477.598,8.135 508.338,22.415 538.938,34.005C569.558,45.985 600.078,56.275 629.908,53.255C659.708,49.825 688.868,34.105 718.408,25.675C747.968,17.655 777.968,17.935 808.318,24.915C838.658,31.495 869.398,45.785 899.908,55.765C930.448,66.355 960.768,72.635 990.168,61.605C1019.55,50.185 1047.97,20.445 1077.7,15.725C1107.44,11.005 1138.5,31.295 1168.76,36.575C1199.03,41.855 1228.5,32.135 1258.67,35.715C1288.87,39.695 1319.71,55.985 1349.91,59.965C1380.09,63.545 1409.56,53.815 1439.12,45.795C1468.66,37.365 1498.34,31.645 1528.24,29.925C1558.13,28.205 1588.34,32.485 1618.33,32.465C1648.34,33.045 1678.13,29.325 1708.06,28.305C1737.97,26.885 1767.97,27.165 1797.97,27.435C1827.97,27.725 1857.97,27.995 1888.33,34.985C1918.66,41.565 1949.4,55.855 1979.73,62.435C2010.09,69.415 2040.09,69.695 2070.09,69.975L2160.09,70.815L2161.67,100.835L1441.67,94.115C1411.67,93.835 1381.67,93.555 1351.67,93.285C1321.67,92.995 1291.67,92.725 1261.67,92.445C1231.67,92.165 1201.67,91.885 1171.67,91.605C1141.67,91.325 1111.67,91.045 1081.67,90.765L451.668,84.885C421.668,84.605 391.668,84.325 361.669,84.055C331.669,83.765 301.669,83.495 271.669,83.215C241.669,82.935 211.669,82.655 181.699,82.375L1.699,80.695L0.099,50.675Z" style="fill:white;fill-rule:nonzero;"/>
    </g>
</svg>
