<?xml version="1.0" standalone="no"?>
<svg xmlns:xlink="http://www.w3.org/1999/xlink" id="wave" style="transform:rotate(180deg); transition: 0.3s" viewBox="0 0 1440 100" version="1.1" xmlns="http://www.w3.org/2000/svg"><defs><linearGradient id="sw-gradient-0" x1="0" x2="0" y1="1" y2="0"><stop stop-color="rgba(243, 227, 201, 1)" offset="0%"/><stop stop-color="rgba(243, 227, 201, 1)" offset="100%"/></linearGradient></defs><path style="transform:translate(0, 0px); opacity:1" fill="url(#sw-gradient-0)" d="M0,70L15,70C30,70,60,70,90,61.7C120,53,150,37,180,40C210,43,240,67,270,66.7C300,67,330,43,360,30C390,17,420,13,450,18.3C480,23,510,37,540,48.3C570,60,600,70,630,66.7C660,63,690,47,720,38.3C750,30,780,30,810,36.7C840,43,870,57,900,66.7C930,77,960,83,990,71.7C1020,60,1050,30,1080,25C1110,20,1140,40,1170,45C1200,50,1230,40,1260,43.3C1290,47,1320,63,1350,66.7C1380,70,1410,60,1440,51.7C1470,43,1500,37,1530,35C1560,33,1590,37,1620,36.7C1650,37,1680,33,1710,31.7C1740,30,1770,30,1800,30C1830,30,1860,30,1890,36.7C1920,43,1950,57,1980,63.3C2010,70,2040,70,2070,70C2100,70,2130,70,2145,70L2160,70L2160,100L2145,100C2130,100,2100,100,2070,100C2040,100,2010,100,1980,100C1950,100,1920,100,1890,100C1860,100,1830,100,1800,100C1770,100,1740,100,1710,100C1680,100,1650,100,1620,100C1590,100,1560,100,1530,100C1500,100,1470,100,1440,100C1410,100,1380,100,1350,100C1320,100,1290,100,1260,100C1230,100,1200,100,1170,100C1140,100,1110,100,1080,100C1050,100,1020,100,990,100C960,100,930,100,900,100C870,100,840,100,810,100C780,100,750,100,720,100C690,100,660,100,630,100C600,100,570,100,540,100C510,100,480,100,450,100C420,100,390,100,360,100C330,100,300,100,270,100C240,100,210,100,180,100C150,100,120,100,90,100C60,100,30,100,15,100L0,100Z"/></svg>