<svg id="wave" style="transform:rotate(180deg); transition: 0.3s" viewBox="0 0 1440 150" version="1.1" xmlns="http://www.w3.org/2000/svg"><defs><linearGradient id="sw-gradient-0" x1="0" x2="0" y1="1" y2="0"><stop stop-color="rgba(243, 106, 62, 1)" offset="0%"></stop><stop stop-color="rgba(255, 179, 11, 1)" offset="100%"></stop></linearGradient></defs><path style="transform:translate(0, 0px); opacity:1" fill="url(#sw-gradient-0)" d="M0,105L10,102.5C20,100,40,95,60,97.5C80,100,100,110,120,100C140,90,160,60,180,50C200,40,220,50,240,55C260,60,280,60,300,67.5C320,75,340,90,360,90C380,90,400,75,420,77.5C440,80,460,100,480,110C500,120,520,120,540,100C560,80,580,40,600,37.5C620,35,640,70,660,80C680,90,700,75,720,80C740,85,760,110,780,112.5C800,115,820,95,840,77.5C860,60,880,45,900,45C920,45,940,60,960,67.5C980,75,1000,75,1020,62.5C1040,50,1060,25,1080,30C1100,35,1120,70,1140,90C1160,110,1180,115,1200,117.5C1220,120,1240,120,1260,122.5C1280,125,1300,130,1320,127.5C1340,125,1360,115,1380,100C1400,85,1420,65,1430,55L1440,45L1440,150L1430,150C1420,150,1400,150,1380,150C1360,150,1340,150,1320,150C1300,150,1280,150,1260,150C1240,150,1220,150,1200,150C1180,150,1160,150,1140,150C1120,150,1100,150,1080,150C1060,150,1040,150,1020,150C1000,150,980,150,960,150C940,150,920,150,900,150C880,150,860,150,840,150C820,150,800,150,780,150C760,150,740,150,720,150C700,150,680,150,660,150C640,150,620,150,600,150C580,150,560,150,540,150C520,150,500,150,480,150C460,150,440,150,420,150C400,150,380,150,360,150C340,150,320,150,300,150C280,150,260,150,240,150C220,150,200,150,180,150C160,150,140,150,120,150C100,150,80,150,60,150C40,150,20,150,10,150L0,150Z"></path></svg>