<?xml version="1.0" standalone="no"?>
<svg xmlns:xlink="http://www.w3.org/1999/xlink" id="wave" style="transform:rotate(0deg); transition: 0.3s" viewBox="0 0 1440 490" version="1.1" xmlns="http://www.w3.org/2000/svg"><defs><linearGradient id="sw-gradient-0" x1="0" x2="0" y1="1" y2="0"><stop stop-color="rgba(43, 36, 36, 0.18823529411764706)" offset="0%"/><stop stop-color="rgba(255, 179, 11, 0.5647058823529412)" offset="100%"/></linearGradient></defs><path style="transform:translate(0, 0px); opacity:1" fill="url(#sw-gradient-0)" d="M0,147L80,196C160,245,320,343,480,392C640,441,800,441,960,392C1120,343,1280,245,1440,236.8C1600,229,1760,310,1920,334.8C2080,359,2240,327,2400,294C2560,261,2720,229,2880,245C3040,261,3200,327,3360,294C3520,261,3680,131,3840,106.2C4000,82,4160,163,4320,171.5C4480,180,4640,114,4800,147C4960,180,5120,310,5280,375.7C5440,441,5600,441,5760,383.8C5920,327,6080,212,6240,179.7C6400,147,6560,196,6720,220.5C6880,245,7040,245,7200,204.2C7360,163,7520,82,7680,89.8C7840,98,8000,196,8160,269.5C8320,343,8480,392,8640,400.2C8800,408,8960,376,9120,351.2C9280,327,9440,310,9600,285.8C9760,261,9920,229,10080,212.3C10240,196,10400,196,10560,236.8C10720,278,10880,359,11040,367.5C11200,376,11360,310,11440,277.7L11520,245L11520,490L11440,490C11360,490,11200,490,11040,490C10880,490,10720,490,10560,490C10400,490,10240,490,10080,490C9920,490,9760,490,9600,490C9440,490,9280,490,9120,490C8960,490,8800,490,8640,490C8480,490,8320,490,8160,490C8000,490,7840,490,7680,490C7520,490,7360,490,7200,490C7040,490,6880,490,6720,490C6560,490,6400,490,6240,490C6080,490,5920,490,5760,490C5600,490,5440,490,5280,490C5120,490,4960,490,4800,490C4640,490,4480,490,4320,490C4160,490,4000,490,3840,490C3680,490,3520,490,3360,490C3200,490,3040,490,2880,490C2720,490,2560,490,2400,490C2240,490,2080,490,1920,490C1760,490,1600,490,1440,490C1280,490,1120,490,960,490C800,490,640,490,480,490C320,490,160,490,80,490L0,490Z"/><defs><linearGradient id="sw-gradient-1" x1="0" x2="0" y1="1" y2="0"><stop stop-color="rgba(43, 36, 36, 0.12549019607843137)" offset="0%"/><stop stop-color="rgba(255, 179, 11, 0.12549019607843137)" offset="100%"/></linearGradient></defs><path style="transform:translate(0, 50px); opacity:0.9" fill="url(#sw-gradient-1)" d="M0,0L80,0C160,0,320,0,480,40.8C640,82,800,163,960,236.8C1120,310,1280,376,1440,375.7C1600,376,1760,310,1920,236.8C2080,163,2240,82,2400,73.5C2560,65,2720,131,2880,147C3040,163,3200,131,3360,106.2C3520,82,3680,65,3840,106.2C4000,147,4160,245,4320,245C4480,245,4640,147,4800,122.5C4960,98,5120,147,5280,138.8C5440,131,5600,65,5760,49C5920,33,6080,65,6240,81.7C6400,98,6560,98,6720,122.5C6880,147,7040,196,7200,179.7C7360,163,7520,82,7680,65.3C7840,49,8000,98,8160,106.2C8320,114,8480,82,8640,57.2C8800,33,8960,16,9120,32.7C9280,49,9440,98,9600,98C9760,98,9920,49,10080,65.3C10240,82,10400,163,10560,220.5C10720,278,10880,310,11040,285.8C11200,261,11360,180,11440,138.8L11520,98L11520,490L11440,490C11360,490,11200,490,11040,490C10880,490,10720,490,10560,490C10400,490,10240,490,10080,490C9920,490,9760,490,9600,490C9440,490,9280,490,9120,490C8960,490,8800,490,8640,490C8480,490,8320,490,8160,490C8000,490,7840,490,7680,490C7520,490,7360,490,7200,490C7040,490,6880,490,6720,490C6560,490,6400,490,6240,490C6080,490,5920,490,5760,490C5600,490,5440,490,5280,490C5120,490,4960,490,4800,490C4640,490,4480,490,4320,490C4160,490,4000,490,3840,490C3680,490,3520,490,3360,490C3200,490,3040,490,2880,490C2720,490,2560,490,2400,490C2240,490,2080,490,1920,490C1760,490,1600,490,1440,490C1280,490,1120,490,960,490C800,490,640,490,480,490C320,490,160,490,80,490L0,490Z"/><defs><linearGradient id="sw-gradient-2" x1="0" x2="0" y1="1" y2="0"><stop stop-color="rgba(43, 36, 36, 0.18823529411764706)" offset="0%"/><stop stop-color="rgba(255, 179, 11, 0.18823529411764706)" offset="100%"/></linearGradient></defs><path style="transform:translate(0, 100px); opacity:0.8" fill="url(#sw-gradient-2)" d="M0,196L80,236.8C160,278,320,359,480,334.8C640,310,800,180,960,114.3C1120,49,1280,49,1440,40.8C1600,33,1760,16,1920,32.7C2080,49,2240,98,2400,171.5C2560,245,2720,343,2880,318.5C3040,294,3200,147,3360,138.8C3520,131,3680,261,3840,326.7C4000,392,4160,392,4320,392C4480,392,4640,392,4800,334.8C4960,278,5120,163,5280,106.2C5440,49,5600,49,5760,89.8C5920,131,6080,212,6240,277.7C6400,343,6560,392,6720,383.8C6880,376,7040,310,7200,261.3C7360,212,7520,180,7680,163.3C7840,147,8000,147,8160,187.8C8320,229,8480,310,8640,359.3C8800,408,8960,425,9120,432.8C9280,441,9440,441,9600,383.8C9760,327,9920,212,10080,204.2C10240,196,10400,294,10560,285.8C10720,278,10880,163,11040,163.3C11200,163,11360,278,11440,334.8L11520,392L11520,490L11440,490C11360,490,11200,490,11040,490C10880,490,10720,490,10560,490C10400,490,10240,490,10080,490C9920,490,9760,490,9600,490C9440,490,9280,490,9120,490C8960,490,8800,490,8640,490C8480,490,8320,490,8160,490C8000,490,7840,490,7680,490C7520,490,7360,490,7200,490C7040,490,6880,490,6720,490C6560,490,6400,490,6240,490C6080,490,5920,490,5760,490C5600,490,5440,490,5280,490C5120,490,4960,490,4800,490C4640,490,4480,490,4320,490C4160,490,4000,490,3840,490C3680,490,3520,490,3360,490C3200,490,3040,490,2880,490C2720,490,2560,490,2400,490C2240,490,2080,490,1920,490C1760,490,1600,490,1440,490C1280,490,1120,490,960,490C800,490,640,490,480,490C320,490,160,490,80,490L0,490Z"/><defs><linearGradient id="sw-gradient-3" x1="0" x2="0" y1="1" y2="0"><stop stop-color="rgba(43, 36, 36, 0.18823529411764706)" offset="0%"/><stop stop-color="rgba(255, 179, 11, 0.18823529411764706)" offset="100%"/></linearGradient></defs><path style="transform:translate(0, 150px); opacity:0.7" fill="url(#sw-gradient-3)" d="M0,196L80,179.7C160,163,320,131,480,114.3C640,98,800,98,960,114.3C1120,131,1280,163,1440,212.3C1600,261,1760,327,1920,326.7C2080,327,2240,261,2400,236.8C2560,212,2720,229,2880,212.3C3040,196,3200,147,3360,106.2C3520,65,3680,33,3840,16.3C4000,0,4160,0,4320,8.2C4480,16,4640,33,4800,32.7C4960,33,5120,16,5280,8.2C5440,0,5600,0,5760,40.8C5920,82,6080,163,6240,204.2C6400,245,6560,245,6720,212.3C6880,180,7040,114,7200,73.5C7360,33,7520,16,7680,73.5C7840,131,8000,261,8160,326.7C8320,392,8480,392,8640,400.2C8800,408,8960,425,9120,416.5C9280,408,9440,376,9600,343C9760,310,9920,278,10080,220.5C10240,163,10400,82,10560,73.5C10720,65,10880,131,11040,147C11200,163,11360,131,11440,114.3L11520,98L11520,490L11440,490C11360,490,11200,490,11040,490C10880,490,10720,490,10560,490C10400,490,10240,490,10080,490C9920,490,9760,490,9600,490C9440,490,9280,490,9120,490C8960,490,8800,490,8640,490C8480,490,8320,490,8160,490C8000,490,7840,490,7680,490C7520,490,7360,490,7200,490C7040,490,6880,490,6720,490C6560,490,6400,490,6240,490C6080,490,5920,490,5760,490C5600,490,5440,490,5280,490C5120,490,4960,490,4800,490C4640,490,4480,490,4320,490C4160,490,4000,490,3840,490C3680,490,3520,490,3360,490C3200,490,3040,490,2880,490C2720,490,2560,490,2400,490C2240,490,2080,490,1920,490C1760,490,1600,490,1440,490C1280,490,1120,490,960,490C800,490,640,490,480,490C320,490,160,490,80,490L0,490Z"/></svg>